<svg xmlns="http://www.w3.org/2000/svg" data-v-fde0c5aa="" class="iconAboveSlogan" viewBox="0 0 300 300"><!----><defs data-v-fde0c5aa=""><!----></defs><rect data-v-fde0c5aa="" fill="transparent" x="0" y="0" width="300px" height="300px" class="logo-background-square"/><defs data-v-fde0c5aa=""><!----></defs><g data-v-fde0c5aa="" id="0b6629e4-0ebb-46a9-a2d8-09fef5cc0b69" fill="#f07e1c" transform="matrix(3.7350954995012016,0,0,3.7350954995012016,17.79629353062203,151.06049491854895)"><path d="M4.62 12.46Q3.51 12.46 2.60 12.12Q1.68 11.77 1.13 11.10Q0.59 10.43 0.59 9.48L0.59 9.48L0.60 9.17L2.66 9.17L2.65 9.39Q2.65 10.01 3.19 10.37Q3.74 10.74 4.72 10.74L4.72 10.74Q5.75 10.74 6.22 10.46Q6.68 10.19 6.68 9.73L6.68 9.73Q6.68 9.32 6.38 9.05Q6.08 8.78 5.62 8.62Q5.17 8.46 4.37 8.23L4.37 8.23Q3.23 7.91 2.53 7.62Q1.83 7.32 1.33 6.74Q0.83 6.16 0.83 5.21L0.83 5.21Q0.83 3.89 1.89 3.21Q2.95 2.52 4.72 2.52L4.72 2.52Q6.38 2.52 7.44 3.23Q8.50 3.93 8.50 5.35L8.50 5.35L8.50 5.52L6.48 5.52L6.48 5.39Q6.48 4.86 6.00 4.55Q5.52 4.24 4.69 4.24L4.69 4.24Q3.81 4.24 3.34 4.48Q2.87 4.72 2.87 5.14L2.87 5.14Q2.87 5.46 3.15 5.69Q3.43 5.92 3.85 6.07Q4.27 6.22 5.04 6.43L5.04 6.43Q6.19 6.73 6.92 7.04Q7.66 7.34 8.19 7.92Q8.72 8.51 8.72 9.46L8.72 9.46Q8.72 11.00 7.62 11.73Q6.52 12.46 4.62 12.46L4.62 12.46ZM10.28 12.29L10.28 2.69L12.25 2.69L15.95 7.91Q16.06 8.06 16.25 8.40Q16.45 8.74 16.51 8.85L16.51 8.85L16.58 8.81Q16.58 8.69 16.55 8.44Q16.53 8.19 16.53 7.99L16.53 7.99L16.53 2.69L18.51 2.69L18.51 12.29L16.53 12.29L12.82 7.03Q12.66 6.79 12.49 6.49Q12.32 6.19 12.28 6.10L12.28 6.10L12.21 6.15Q12.21 6.24 12.23 6.50Q12.25 6.75 12.25 6.99L12.25 6.99L12.25 12.29L10.28 12.29ZM19.47 12.29L23.23 2.69L25.77 2.69L29.53 12.29L27.31 12.29L26.63 10.46L22.26 10.46L21.57 12.29L19.47 12.29ZM22.89 8.76L25.98 8.76L25.07 6.33Q24.96 6.03 24.75 5.35Q24.54 4.66 24.47 4.44L24.47 4.44L24.40 4.44Q24.33 4.66 24.12 5.35Q23.91 6.03 23.80 6.33L23.80 6.33L22.89 8.76ZM34.79 12.46Q30.14 12.46 30.14 7.49L30.14 7.49Q30.14 5.00 31.36 3.76Q32.58 2.52 34.79 2.52L34.79 2.52Q36.01 2.52 36.98 2.93Q37.95 3.35 38.52 4.19Q39.09 5.04 39.09 6.26L39.09 6.26L37.00 6.26Q37.00 5.32 36.40 4.78Q35.80 4.24 34.83 4.24L34.83 4.24Q33.52 4.24 32.87 5.03Q32.23 5.81 32.23 7.28L32.23 7.28L32.23 7.70Q32.23 10.74 34.83 10.74L34.83 10.74Q35.85 10.74 36.46 10.21Q37.07 9.67 37.07 8.74L37.07 8.74L39.09 8.74Q39.09 9.97 38.53 10.80Q37.97 11.63 37.00 12.05Q36.04 12.46 34.79 12.46L34.79 12.46ZM40.60 12.29L40.60 2.69L42.63 2.69L42.63 7.32L47.07 2.69L49.53 2.69L45.78 6.59L49.59 12.29L47.18 12.29L44.42 8.02L42.63 9.51L42.63 12.29L40.60 12.29ZM50.71 12.29L50.71 2.69L55.80 2.69Q57.41 2.69 58.23 3.48Q59.04 4.27 59.04 5.70L59.04 5.70Q59.04 7.71 57.36 8.39L57.36 8.39L59.32 12.29L57.12 12.29L55.43 8.71L52.74 8.71L52.74 12.29L50.71 12.29ZM52.74 7.01L55.62 7.01Q56.28 7.01 56.63 6.66Q56.98 6.31 56.98 5.70L56.98 5.70Q56.98 5.08 56.63 4.75Q56.28 4.41 55.62 4.41L55.62 4.41L52.74 4.41L52.74 7.01ZM65.32 12.46Q63.01 12.46 61.74 11.22Q60.47 9.98 60.47 7.49L60.47 7.49Q60.47 5.00 61.74 3.76Q63.01 2.52 65.32 2.52L65.32 2.52Q67.65 2.52 68.92 3.76Q70.20 5.00 70.20 7.49L70.20 7.49Q70.20 9.98 68.92 11.22Q67.65 12.46 65.32 12.46L65.32 12.46ZM65.32 10.74Q66.70 10.74 67.40 9.95Q68.11 9.16 68.11 7.70L68.11 7.70L68.11 7.28Q68.11 5.82 67.40 5.03Q66.70 4.24 65.32 4.24L65.32 4.24Q63.95 4.24 63.25 5.03Q62.55 5.82 62.55 7.28L62.55 7.28L62.55 7.70Q62.55 9.16 63.25 9.95Q63.95 10.74 65.32 10.74L65.32 10.74Z"/></g><defs data-v-fde0c5aa=""><!----></defs><g data-v-fde0c5aa="" id="879c8f43-3cca-4a55-95a6-e4e9e3dea322" stroke="none" fill="#f07e1c" transform="matrix(0.6327243995569417,0,0,0.6327243995569417,118.44566437433022,82.36411754814125)"><path d="M67.1 38.2c-1.4-12.9-13-29-23.6-33.2 1.9 10.1-2.4 22.5-16.3 41.3.1-1.4.5-8.4-3.4-14.8 1.1 7.1-9.1 19.8-10.6 32.8-1.5 13 7.2 23.2 20.4 30.7-10.1-22.2 7.4-26.5 8.1-41.2 1.4 1.9 4 5.6 2.2 13 3.7-3 9.4-16 6.7-24.7 10 5.9 24.6 34.5 12.8 52.6 11.7-6.6 19.6-17 22.5-27.9 2.9-10.9-1.8-29.4-17.3-44.9 1.8 2.5 3.8 12.1-1.5 16.3z"/></g><defs data-v-fde0c5aa=""><!----></defs><g data-v-fde0c5aa="" id="46825423-9fd8-475d-8462-ea5b4fd1b852" fill="#050505" transform="matrix(0.7241802204333253,0,0,0.7241802204333253,51.6816763543635,206.07901193406673)"><path d="M7.83 3.22L7.83 2.21L1.13 2.21L1.13 11.48L2.18 11.48L2.18 7.46L7.21 7.46L7.21 6.44L2.18 6.44L2.18 3.22ZM23.02 2.21L23.02 7.52C23.02 9.67 21.59 10.57 20.12 10.57C18.65 10.57 17.23 9.67 17.23 7.52L17.23 2.21L16.18 2.21L16.18 7.49C16.18 9.95 17.81 11.59 20.12 11.59C22.44 11.59 24.07 9.94 24.07 7.49L24.07 2.21ZM40.04 3.22L40.04 2.21L33.22 2.21L33.22 11.48L40.04 11.48L40.04 10.47L34.27 10.47L34.27 7.35L39.42 7.35L39.42 6.33L34.27 6.33L34.27 3.22ZM48.73 2.21L48.73 11.48L54.84 11.48L54.84 10.47L49.78 10.47L49.78 2.21ZM76.97 7.81L80.85 2.21L79.58 2.21L76.44 6.72L73.30 2.21L72.03 2.21L75.92 7.81L75.92 11.48L76.97 11.48ZM92.60 2.10C89.78 2.10 87.89 4.21 87.89 6.85C87.89 9.48 89.78 11.59 92.60 11.59C95.41 11.59 97.30 9.48 97.30 6.85C97.30 4.21 95.41 2.10 92.60 2.10ZM92.60 10.57C90.34 10.57 88.94 8.93 88.94 6.85C88.94 4.76 90.34 3.12 92.60 3.12C94.85 3.12 96.25 4.76 96.25 6.85C96.25 8.93 94.85 10.57 92.60 10.57ZM112.70 2.21L112.70 7.52C112.70 9.67 111.27 10.57 109.80 10.57C108.33 10.57 106.92 9.67 106.92 7.52L106.92 2.21L105.87 2.21L105.87 7.49C105.87 9.95 107.49 11.59 109.80 11.59C112.13 11.59 113.75 9.94 113.75 7.49L113.75 2.21ZM123.96 7.92L127.18 7.92L129.42 11.48L130.66 11.48L128.23 7.74C129.26 7.50 130.47 6.90 130.47 5.11C130.47 3.35 129.25 2.21 127.34 2.21L122.91 2.21L122.91 11.48L123.96 11.48ZM123.96 3.21L127.22 3.21C128.53 3.21 129.42 3.93 129.42 5.11C129.42 6.55 128.16 6.93 127.16 6.93L123.96 6.93ZM150.30 8.18L153.43 8.18C155.40 8.18 156.62 7.03 156.62 5.19C156.62 3.37 155.40 2.21 153.43 2.21L149.25 2.21L149.25 11.48L150.30 11.48ZM153.36 3.21C154.81 3.21 155.57 3.96 155.57 5.19C155.57 6.44 154.81 7.20 153.36 7.20L150.30 7.20L150.30 3.21ZM166.10 7.92L169.32 7.92L171.56 11.48L172.80 11.48L170.37 7.74C171.40 7.50 172.61 6.90 172.61 5.11C172.61 3.35 171.39 2.21 169.48 2.21L165.05 2.21L165.05 11.48L166.10 11.48ZM166.10 3.21L169.36 3.21C170.67 3.21 171.56 3.93 171.56 5.11C171.56 6.55 170.30 6.93 169.30 6.93L166.10 6.93ZM185.53 2.10C182.71 2.10 180.82 4.21 180.82 6.85C180.82 9.48 182.71 11.59 185.53 11.59C188.34 11.59 190.23 9.48 190.23 6.85C190.23 4.21 188.34 2.10 185.53 2.10ZM185.53 10.57C183.27 10.57 181.87 8.93 181.87 6.85C181.87 4.76 183.27 3.12 185.53 3.12C187.78 3.12 189.18 4.76 189.18 6.85C189.18 8.93 187.78 10.57 185.53 10.57ZM202.89 2.10C200.10 2.10 198.32 4.21 198.32 6.85C198.32 9.48 200.03 11.59 202.86 11.59C204.54 11.59 205.63 10.74 206.22 9.84L206.22 11.48L207.19 11.48L207.19 6.55L202.83 6.55L202.83 7.50L206.22 7.50C206.22 9.44 204.62 10.57 202.94 10.57C200.69 10.57 199.37 8.93 199.37 6.85C199.37 4.76 200.72 3.12 202.97 3.12C204.39 3.12 205.39 3.74 205.95 4.73L207.10 4.73C206.42 3.18 204.88 2.10 202.89 2.10ZM217.08 7.92L220.30 7.92L222.54 11.48L223.79 11.48L221.35 7.74C222.39 7.50 223.59 6.90 223.59 5.11C223.59 3.35 222.38 2.21 220.47 2.21L216.03 2.21L216.03 11.48L217.08 11.48ZM217.08 3.21L220.35 3.21C221.66 3.21 222.54 3.93 222.54 5.11C222.54 6.55 221.28 6.93 220.29 6.93L217.08 6.93ZM239.22 3.22L239.22 2.21L232.40 2.21L232.40 11.48L239.22 11.48L239.22 10.47L233.45 10.47L233.45 7.35L238.60 7.35L238.60 6.33L233.45 6.33L233.45 3.22ZM248.42 4.65C248.42 4.03 248.78 3.08 250.88 3.08C252.57 3.08 253.36 3.82 253.47 4.75L254.55 4.75C254.46 3.36 253.34 2.10 250.88 2.10C248.56 2.10 247.39 3.15 247.39 4.66C247.39 7.84 253.74 6.69 253.74 8.96C253.74 10.05 252.76 10.60 251.19 10.60C249.58 10.60 248.28 10.05 248.21 8.71L247.11 8.71C247.25 10.37 248.37 11.59 251.12 11.59C253.40 11.59 254.79 10.64 254.79 8.92C254.79 5.68 248.42 6.80 248.42 4.65ZM264.03 4.65C264.03 4.03 264.39 3.08 266.49 3.08C268.18 3.08 268.97 3.82 269.08 4.75L270.16 4.75C270.07 3.36 268.95 2.10 266.49 2.10C264.17 2.10 263.00 3.15 263.00 4.66C263.00 7.84 269.35 6.69 269.35 8.96C269.35 10.05 268.37 10.60 266.80 10.60C265.19 10.60 263.89 10.05 263.82 8.71L262.72 8.71C262.86 10.37 263.98 11.59 266.73 11.59C269.01 11.59 270.40 10.64 270.40 8.92C270.40 5.68 264.03 6.80 264.03 4.65Z"/></g></svg>